<svg width="368" height="368" viewBox="0 0 368 368" fill="none" xmlns="http://www.w3.org/2000/svg">
<g clip-path="url(#clip0_49_63)">
<rect width="368" height="368" fill="#0A95FF"/>
<ellipse cx="241.5" cy="187" rx="238.5" ry="239" fill="#9A5EC7"/>
<ellipse cx="249.5" cy="164" rx="238.5" ry="239" fill="#DEB2FF"/>
<path d="M360 221C360 290.588 293.962 347 212.5 347C131.038 347 65 290.588 65 221C65 151.412 130.538 109.5 212 109.5C293.462 109.5 360 151.412 360 221Z" fill="#E449CA"/>
<path d="M360 221C238.902 198.199 174.897 256.162 212.5 347C131.038 347 65 290.588 65 221C65 151.412 126.038 108 207.5 108C288.962 108 360 151.412 360 221Z" fill="#6C0D5C"/>
<path d="M232 34.6712C232 44.9831 215.575 33.634 197.35 33.634C179.125 33.634 166 44.9831 166 34.6712C166 24.3594 180.775 16 199 16C217.225 16 232 24.3594 232 34.6712Z" fill="#380730"/>
<path d="M79.4858 55.9123C87.4262 62.4913 68.2081 67.898 56.5802 81.9322C44.9523 95.9663 45.3179 113.313 37.3775 106.734C29.437 100.155 32.4263 83.4452 44.0542 69.4111C55.682 55.3769 71.5453 49.3333 79.4858 55.9123Z" fill="#380730"/>
</g>
<defs>
<clipPath id="clip0_49_63">
<rect width="368" height="368" fill="white"/>
</clipPath>
</defs>
</svg>
